<svg xmlns="http://www.w3.org/2000/svg" xmlns:xlink="http://www.w3.org/1999/xlink" width="750" zoomAndPan="magnify" viewBox="0 0 562.5 225" height="300" preserveAspectRatio="xMidYMid meet" version="1.0"><defs><g/><clipPath id="d6fb983d6a"><path d="M 25.664062 48.28125 L 536.835938 48.28125 L 536.835938 176.917969 L 25.664062 176.917969 Z M 25.664062 48.28125 " clip-rule="nonzero"/></clipPath><clipPath id="ca9a8fe839"><path d="M 25.679688 48.28125 L 537.148438 48.28125 L 537.148438 177.28125 L 25.679688 177.28125 Z M 25.679688 48.28125 " clip-rule="nonzero"/></clipPath><clipPath id="7e2f964dd2"><path d="M 35.367188 68.449219 L 279.25 68.449219 L 279.25 153.953125 L 35.367188 153.953125 Z M 35.367188 68.449219 " clip-rule="nonzero"/></clipPath></defs><g clip-path="url(#d6fb983d6a)"><path fill="#fefefe" d="M 25.664062 48.28125 L 536.515625 48.28125 L 536.515625 176.835938 L 25.664062 176.835938 Z M 25.664062 48.28125 " fill-opacity="1" fill-rule="nonzero"/></g><g clip-path="url(#ca9a8fe839)"><path stroke-linecap="butt" transform="matrix(0.750499, 0, 0, 0.752187, 25.681429, 48.281659)" fill="none" stroke-linejoin="miter" d="M -0.00232013 -0.000543696 L 681.502939 -0.000543696 L 681.502939 171.499467 L -0.00232013 171.499467 L -0.00232013 -0.000543696 " stroke="#000000" stroke-width="4" stroke-opacity="1" stroke-miterlimit="4"/></g><g clip-path="url(#7e2f964dd2)"><path fill="#132c41" d="M 35.367188 68.449219 L 279.28125 68.449219 L 279.28125 153.996094 L 35.367188 153.996094 Z M 35.367188 68.449219 " fill-opacity="1" fill-rule="nonzero"/></g><g fill="#ffffff" fill-opacity="1"><g transform="translate(45.06665, 123.631276)"><g><path d="M 3.90625 0 L 20.597656 0 L 20.597656 -3.140625 L 7.273438 -3.140625 L 7.273438 -12.097656 L 19.21875 -12.097656 L 19.21875 -15.199219 L 7.273438 -15.199219 L 7.273438 -23.660156 L 20.175781 -23.660156 L 20.175781 -26.800781 L 3.90625 -26.800781 Z M 3.90625 0 "/></g></g></g><g fill="#ffffff" fill-opacity="1"><g transform="translate(71.055817, 123.631276)"><g><path d="M 3.90625 0 L 7.234375 0 L 7.234375 -20.980469 L 22.054688 0 L 25.191406 0 L 25.191406 -26.800781 L 21.898438 -26.800781 L 21.898438 -5.820312 L 7.082031 -26.800781 L 3.90625 -26.800781 Z M 3.90625 0 "/></g></g></g><g fill="#ffffff" fill-opacity="1"><g transform="translate(103.05398, 123.631276)"><g><path d="M 15.851562 0.496094 C 24.082031 0.496094 29.632812 -5.742188 29.480469 -14.550781 L 14.933594 -14.550781 L 14.933594 -11.332031 L 25.84375 -11.332031 C 25.15625 -6.277344 21.324219 -2.871094 15.925781 -2.871094 C 9.917969 -2.871094 5.667969 -7.199219 5.667969 -13.398438 C 5.667969 -19.601562 9.878906 -23.929688 15.890625 -23.929688 C 20.023438 -23.929688 23.316406 -21.898438 25 -18.453125 L 28.675781 -18.453125 C 26.953125 -23.738281 21.898438 -27.296875 15.773438 -27.296875 C 7.925781 -27.296875 2.21875 -21.441406 2.21875 -13.398438 C 2.21875 -5.320312 7.964844 0.496094 15.851562 0.496094 Z M 15.851562 0.496094 "/></g></g></g><g fill="#ffffff" fill-opacity="1"><g transform="translate(137.539954, 123.631276)"><g><path d="M 3.90625 0 L 20.292969 0 L 20.292969 -3.214844 L 7.273438 -3.214844 L 7.273438 -26.800781 L 3.90625 -26.800781 Z M 3.90625 0 "/></g></g></g><g fill="#ffffff" fill-opacity="1"><g transform="translate(161.921617, 123.631276)"><g><path d="M 3.90625 0 L 7.273438 0 L 7.273438 -26.800781 L 3.90625 -26.800781 Z M 3.90625 0 "/></g></g></g><g fill="#ffffff" fill-opacity="1"><g transform="translate(176.007584, 123.631276)"><g><path d="M 12.824219 0.496094 C 18.683594 0.496094 22.472656 -2.375 22.472656 -7.042969 C 22.472656 -10.988281 19.832031 -13.363281 12.980469 -15.046875 C 7.773438 -16.308594 6.050781 -17.6875 6.050781 -19.910156 C 6.050781 -22.472656 8.347656 -24.082031 12.175781 -24.082031 C 16.117188 -24.082031 18.570312 -22.089844 18.644531 -18.875 L 21.976562 -18.875 C 21.9375 -24.082031 18.1875 -27.296875 12.175781 -27.296875 C 6.316406 -27.296875 2.601562 -24.425781 2.601562 -19.910156 C 2.601562 -15.773438 5.550781 -13.476562 12.136719 -11.90625 C 16.960938 -10.757812 18.988281 -9.417969 18.988281 -6.929688 C 18.988281 -4.289062 16.617188 -2.71875 12.824219 -2.71875 C 8.652344 -2.71875 5.742188 -4.785156 5.667969 -8.230469 L 2.296875 -8.230469 C 2.335938 -2.988281 6.433594 0.496094 12.824219 0.496094 Z M 12.824219 0.496094 "/></g></g></g><g fill="#ffffff" fill-opacity="1"><g transform="translate(203.680794, 123.631276)"><g><path d="M 21.480469 0 L 24.847656 0 L 24.847656 -26.800781 L 21.480469 -26.800781 L 21.480469 -15.277344 L 7.273438 -15.277344 L 7.273438 -26.800781 L 3.90625 -26.800781 L 3.90625 0 L 7.273438 0 L 7.273438 -12.058594 L 21.480469 -12.058594 Z M 21.480469 0 "/></g></g></g><g fill="#ffffff" fill-opacity="1"><g transform="translate(235.334492, 123.631276)"><g><path d="M 2.871094 -17.265625 L 5.667969 -17.265625 L 5.78125 -26.800781 L 2.757812 -26.800781 Z M 2.871094 -17.265625 "/></g></g></g><g fill="#ffffff" fill-opacity="1"><g transform="translate(246.779567, 123.631276)"><g><path d="M 12.824219 0.496094 C 18.683594 0.496094 22.472656 -2.375 22.472656 -7.042969 C 22.472656 -10.988281 19.832031 -13.363281 12.980469 -15.046875 C 7.773438 -16.308594 6.050781 -17.6875 6.050781 -19.910156 C 6.050781 -22.472656 8.347656 -24.082031 12.175781 -24.082031 C 16.117188 -24.082031 18.570312 -22.089844 18.644531 -18.875 L 21.976562 -18.875 C 21.9375 -24.082031 18.1875 -27.296875 12.175781 -27.296875 C 6.316406 -27.296875 2.601562 -24.425781 2.601562 -19.910156 C 2.601562 -15.773438 5.550781 -13.476562 12.136719 -11.90625 C 16.960938 -10.757812 18.988281 -9.417969 18.988281 -6.929688 C 18.988281 -4.289062 16.617188 -2.71875 12.824219 -2.71875 C 8.652344 -2.71875 5.742188 -4.785156 5.667969 -8.230469 L 2.296875 -8.230469 C 2.335938 -2.988281 6.433594 0.496094 12.824219 0.496094 Z M 12.824219 0.496094 "/></g></g></g><g fill="#000000" fill-opacity="1"><g transform="translate(281.249979, 124.159887)"><g><path d="M 2.832031 0 L 21.632812 0 L 21.632812 -6.316406 L 10.492188 -6.316406 L 10.492188 -10.453125 L 20.175781 -10.453125 L 20.175781 -16.652344 L 10.492188 -16.652344 L 10.492188 -20.558594 L 21.210938 -20.558594 L 21.210938 -26.800781 L 2.832031 -26.800781 Z M 2.832031 0 "/></g></g></g><g fill="#000000" fill-opacity="1"><g transform="translate(304.602826, 124.159887)"><g><path d="M 2.832031 0 L 10.492188 0 L 10.492188 -13.667969 L 20.675781 0 L 26.953125 0 L 26.953125 -26.800781 L 19.335938 -26.800781 L 19.335938 -13.207031 L 9.148438 -26.800781 L 2.832031 -26.800781 Z M 2.832031 0 "/></g></g></g><g fill="#000000" fill-opacity="1"><g transform="translate(334.425566, 124.159887)"><g><path d="M 9.226562 0 L 16.921875 0 L 16.921875 -19.640625 L 25.078125 -19.640625 L 25.078125 -26.800781 L 1.070312 -26.800781 L 1.070312 -19.640625 L 9.226562 -19.640625 Z M 9.226562 0 "/></g></g></g><g fill="#000000" fill-opacity="1"><g transform="translate(360.573104, 124.159887)"><g><path d="M 2.832031 0 L 21.632812 0 L 21.632812 -6.316406 L 10.492188 -6.316406 L 10.492188 -10.453125 L 20.175781 -10.453125 L 20.175781 -16.652344 L 10.492188 -16.652344 L 10.492188 -20.558594 L 21.210938 -20.558594 L 21.210938 -26.800781 L 2.832031 -26.800781 Z M 2.832031 0 "/></g></g></g><g fill="#000000" fill-opacity="1"><g transform="translate(383.92595, 124.159887)"><g><path d="M 2.832031 0 L 10.566406 0 L 10.566406 -7.617188 L 13.476562 -7.617188 L 17.304688 0 L 26.074219 0 L 21.132812 -9.035156 C 23.964844 -10.605469 25.574219 -13.4375 25.574219 -17.191406 C 25.574219 -23.125 21.554688 -26.800781 15.046875 -26.800781 L 2.832031 -26.800781 Z M 10.414062 -13.78125 L 10.414062 -20.484375 L 14.011719 -20.484375 C 16.460938 -20.484375 17.804688 -19.296875 17.804688 -17.152344 C 17.804688 -15.007812 16.460938 -13.78125 14.011719 -13.78125 Z M 10.414062 -13.78125 "/></g></g></g><g fill="#000000" fill-opacity="1"><g transform="translate(411.489974, 124.159887)"><g><path d="M 2.832031 0 L 10.566406 0 L 10.566406 -6.625 L 14.128906 -6.625 C 20.941406 -6.625 25.269531 -10.566406 25.269531 -16.730469 C 25.269531 -22.894531 20.941406 -26.800781 14.128906 -26.800781 L 2.832031 -26.800781 Z M 10.492188 -13.09375 L 10.492188 -20.292969 L 13.398438 -20.292969 C 15.964844 -20.292969 17.457031 -18.914062 17.457031 -16.691406 C 17.457031 -14.433594 15.964844 -13.09375 13.398438 -13.09375 Z M 10.492188 -13.09375 "/></g></g></g><g fill="#000000" fill-opacity="1"><g transform="translate(437.637511, 124.159887)"><g><path d="M 2.832031 0 L 10.566406 0 L 10.566406 -7.617188 L 13.476562 -7.617188 L 17.304688 0 L 26.074219 0 L 21.132812 -9.035156 C 23.964844 -10.605469 25.574219 -13.4375 25.574219 -17.191406 C 25.574219 -23.125 21.554688 -26.800781 15.046875 -26.800781 L 2.832031 -26.800781 Z M 10.414062 -13.78125 L 10.414062 -20.484375 L 14.011719 -20.484375 C 16.460938 -20.484375 17.804688 -19.296875 17.804688 -17.152344 C 17.804688 -15.007812 16.460938 -13.78125 14.011719 -13.78125 Z M 10.414062 -13.78125 "/></g></g></g><g fill="#000000" fill-opacity="1"><g transform="translate(465.201535, 124.159887)"><g><path d="M 2.832031 0 L 10.566406 0 L 10.566406 -26.800781 L 2.832031 -26.800781 Z M 2.832031 0 "/></g></g></g><g fill="#000000" fill-opacity="1"><g transform="translate(478.600719, 124.159887)"><g><path d="M 12.441406 0.574219 C 19.105469 0.574219 23.046875 -2.566406 23.046875 -7.847656 C 23.046875 -12.289062 20.175781 -14.894531 13.667969 -16.347656 C 10.222656 -17.113281 8.957031 -17.957031 8.957031 -19.335938 C 8.957031 -20.636719 10.105469 -21.441406 11.90625 -21.441406 C 14.050781 -21.441406 15.277344 -20.328125 15.277344 -18.300781 L 22.550781 -18.300781 C 22.550781 -23.8125 18.339844 -27.375 11.753906 -27.375 C 5.4375 -27.375 1.53125 -24.234375 1.53125 -19.179688 C 1.53125 -14.664062 4.480469 -11.867188 10.527344 -10.71875 C 13.78125 -10.070312 15.351562 -9.074219 15.351562 -7.542969 C 15.351562 -6.203125 14.203125 -5.4375 12.328125 -5.4375 C 10.105469 -5.4375 8.804688 -6.625 8.804688 -8.691406 L 1.339844 -8.691406 C 1.339844 -2.910156 5.476562 0.574219 12.441406 0.574219 Z M 12.441406 0.574219 "/></g></g></g><g fill="#000000" fill-opacity="1"><g transform="translate(503.063793, 124.159887)"><g><path d="M 2.832031 0 L 21.632812 0 L 21.632812 -6.316406 L 10.492188 -6.316406 L 10.492188 -10.453125 L 20.175781 -10.453125 L 20.175781 -16.652344 L 10.492188 -16.652344 L 10.492188 -20.558594 L 21.210938 -20.558594 L 21.210938 -26.800781 L 2.832031 -26.800781 Z M 2.832031 0 "/></g></g></g></svg>